# This file uses centimeters as units for non-parametric coordinates.

mtllib Layout.mtl
g default
v -9.626217 -0.100000 9.731645
v 10.373783 -0.100000 9.731645
v -9.626217 0.100000 9.731645
v 10.373783 0.100000 9.731645
v -9.626217 0.100000 -10.268355
v 10.373783 0.100000 -10.268355
v -9.626217 -0.100000 -10.268355
v 10.373783 -0.100000 -10.268355
vt 0.176423 0.166907
vt 0.426423 0.166907
vt 0.176423 0.416907
vt 0.426423 0.416907
vt 0.761163 0.269190
vt 0.426423 0.666907
vt 0.763602 0.519190
vt 1.013601 0.519190
vt 0.757353 0.769038
vt 1.013601 0.769190
vt 0.676423 0.166907
vt 0.676423 0.416907
vt -0.073577 0.166907
vt -0.073577 0.416907
vt 1.011163 0.269190
vt 0.176423 0.666907
vn 0.000000 0.000000 1.000000
vn 0.000000 0.000000 1.000000
vn 0.000000 0.000000 1.000000
vn 0.000000 0.000000 1.000000
vn 0.000000 1.000000 0.000000
vn 0.000000 1.000000 0.000000
vn 0.000000 1.000000 0.000000
vn 0.000000 1.000000 0.000000
vn 0.000000 0.000000 -1.000000
vn 0.000000 0.000000 -1.000000
vn 0.000000 0.000000 -1.000000
vn 0.000000 0.000000 -1.000000
vn 0.000000 -1.000000 0.000000
vn 0.000000 -1.000000 0.000000
vn 0.000000 -1.000000 0.000000
vn 0.000000 -1.000000 0.000000
vn 1.000000 0.000000 0.000000
vn 1.000000 0.000000 0.000000
vn 1.000000 0.000000 0.000000
vn 1.000000 0.000000 0.000000
vn -1.000000 0.000000 0.000000
vn -1.000000 0.000000 0.000000
vn -1.000000 0.000000 0.000000
vn -1.000000 0.000000 0.000000
s 1
g pCube1
usemtl initialShadingGroup
f 1/1/1 2/2/2 3/3/3
f 3/3/3 2/2/2 4/4/4
s 2
f 3/3/5 4/4/6 5/16/7
f 5/16/7 4/4/6 6/6/8
s 3
f 5/5/9 6/15/10 7/7/11
f 7/7/11 6/15/10 8/8/12
s 4
f 7/7/13 8/8/14 1/9/15
f 1/9/15 8/8/14 2/10/16
s 5
f 2/2/17 8/11/18 4/4/19
f 4/4/19 8/11/18 6/12/20
s 6
f 7/13/21 1/1/22 5/14/23
f 5/14/23 1/1/22 3/3/24
g default
v 8.878346 -0.074996 1.260154
v 8.878346 -0.074996 -5.186779
v 8.878346 1.925004 1.260154
v 8.878346 1.925004 -5.186779
v 8.678346 1.925004 1.260154
v 8.678346 1.925004 -5.186779
v 8.678346 -0.074996 1.260154
v 8.678346 -0.074996 -5.186779
vt 0.375000 0.000000
vt 0.625000 0.000000
vt 0.375000 0.250000
vt 0.625000 0.250000
vt 0.375000 0.500000
vt 0.625000 0.500000
vt 0.375000 0.750000
vt 0.625000 0.750000
vt 0.375000 1.000000
vt 0.625000 1.000000
vt 0.875000 0.000000
vt 0.875000 0.250000
vt 0.125000 0.000000
vt 0.125000 0.250000
vn 1.000000 0.000000 0.000000
vn 1.000000 0.000000 0.000000
vn 1.000000 0.000000 0.000000
vn 1.000000 0.000000 0.000000
vn 0.000000 1.000000 0.000000
vn 0.000000 1.000000 0.000000
vn 0.000000 1.000000 0.000000
vn 0.000000 1.000000 0.000000
vn -1.000000 0.000000 -0.000000
vn -1.000000 0.000000 -0.000000
vn -1.000000 0.000000 -0.000000
vn -1.000000 0.000000 -0.000000
vn 0.000000 -1.000000 0.000000
vn 0.000000 -1.000000 0.000000
vn 0.000000 -1.000000 0.000000
vn 0.000000 -1.000000 0.000000
vn 0.000000 0.000000 -1.000000
vn 0.000000 0.000000 -1.000000
vn 0.000000 0.000000 -1.000000
vn 0.000000 0.000000 -1.000000
vn -0.000000 0.000000 1.000000
vn -0.000000 0.000000 1.000000
vn -0.000000 0.000000 1.000000
vn -0.000000 0.000000 1.000000
s 1
g pCube2 group
usemtl pasted__lambert3SG
f 9/17/25 10/18/26 11/19/27
f 11/19/27 10/18/26 12/20/28
s 2
f 11/19/29 12/20/30 13/21/31
f 13/21/31 12/20/30 14/22/32
s 3
f 13/21/33 14/22/34 15/23/35
f 15/23/35 14/22/34 16/24/36
s 4
f 15/23/37 16/24/38 9/25/39
f 9/25/39 16/24/38 10/26/40
s 5
f 10/18/41 16/27/42 12/20/43
f 12/20/43 16/27/42 14/28/44
s 6
f 15/29/45 9/17/46 13/30/47
f 13/30/47 9/17/46 11/19/48
g default
v 0.958252 -0.074996 -8.255770
v 10.400816 -0.074996 -8.255770
v 0.958252 1.925004 -8.255770
v 10.400816 1.925004 -8.255770
v 0.958252 1.925004 -8.455770
v 10.400816 1.925004 -8.455770
v 0.958252 -0.074996 -8.455770
v 10.400816 -0.074996 -8.455770
vt 0.375000 0.000000
vt 0.625000 0.000000
vt 0.375000 0.250000
vt 0.625000 0.250000
vt 0.375000 0.500000
vt 0.625000 0.500000
vt 0.375000 0.750000
vt 0.625000 0.750000
vt 0.375000 1.000000
vt 0.625000 1.000000
vt 0.875000 0.000000
vt 0.875000 0.250000
vt 0.125000 0.000000
vt 0.125000 0.250000
vn 0.000000 0.000000 1.000000
vn 0.000000 0.000000 1.000000
vn 0.000000 0.000000 1.000000
vn 0.000000 0.000000 1.000000
vn 0.000000 1.000000 0.000000
vn 0.000000 1.000000 0.000000
vn 0.000000 1.000000 0.000000
vn 0.000000 1.000000 0.000000
vn 0.000000 0.000000 -1.000000
vn 0.000000 0.000000 -1.000000
vn 0.000000 0.000000 -1.000000
vn 0.000000 0.000000 -1.000000
vn 0.000000 -1.000000 0.000000
vn 0.000000 -1.000000 0.000000
vn 0.000000 -1.000000 0.000000
vn 0.000000 -1.000000 0.000000
vn 1.000000 0.000000 0.000000
vn 1.000000 0.000000 0.000000
vn 1.000000 0.000000 0.000000
vn 1.000000 0.000000 0.000000
vn -1.000000 0.000000 0.000000
vn -1.000000 0.000000 0.000000
vn -1.000000 0.000000 0.000000
vn -1.000000 0.000000 0.000000
s 1
g pasted__pCube2 group1
usemtl pasted__lambert3SG1
f 17/31/49 18/32/50 19/33/51
f 19/33/51 18/32/50 20/34/52
s 2
f 19/33/53 20/34/54 21/35/55
f 21/35/55 20/34/54 22/36/56
s 3
f 21/35/57 22/36/58 23/37/59
f 23/37/59 22/36/58 24/38/60
s 4
f 23/37/61 24/38/62 17/39/63
f 17/39/63 24/38/62 18/40/64
s 5
f 18/32/65 24/41/66 20/34/67
f 20/34/67 24/41/66 22/42/68
s 6
f 23/43/69 17/31/70 21/44/71
f 21/44/71 17/31/70 19/33/72
g default
v 3.032404 -0.074996 -5.072570
v 10.462976 -0.074996 -5.072570
v 3.032404 1.925004 -5.072570
v 10.462976 1.925004 -5.072570
v 3.032404 1.925004 -5.272570
v 10.462976 1.925004 -5.272570
v 3.032404 -0.074996 -5.272570
v 10.462976 -0.074996 -5.272570
vt 0.375000 0.000000
vt 0.625000 0.000000
vt 0.375000 0.250000
vt 0.625000 0.250000
vt 0.375000 0.500000
vt 0.625000 0.500000
vt 0.375000 0.750000
vt 0.625000 0.750000
vt 0.375000 1.000000
vt 0.625000 1.000000
vt 0.875000 0.000000
vt 0.875000 0.250000
vt 0.125000 0.000000
vt 0.125000 0.250000
vn 0.000000 0.000000 1.000000
vn 0.000000 0.000000 1.000000
vn 0.000000 0.000000 1.000000
vn 0.000000 0.000000 1.000000
vn 0.000000 1.000000 0.000000
vn 0.000000 1.000000 0.000000
vn 0.000000 1.000000 0.000000
vn 0.000000 1.000000 0.000000
vn 0.000000 0.000000 -1.000000
vn 0.000000 0.000000 -1.000000
vn 0.000000 0.000000 -1.000000
vn 0.000000 0.000000 -1.000000
vn 0.000000 -1.000000 0.000000
vn 0.000000 -1.000000 0.000000
vn 0.000000 -1.000000 0.000000
vn 0.000000 -1.000000 0.000000
vn 1.000000 0.000000 0.000000
vn 1.000000 0.000000 0.000000
vn 1.000000 0.000000 0.000000
vn 1.000000 0.000000 0.000000
vn -1.000000 0.000000 0.000000
vn -1.000000 0.000000 0.000000
vn -1.000000 0.000000 0.000000
vn -1.000000 0.000000 0.000000
s 1
g pasted__pasted__pCube2 pasted__group group2
usemtl pasted__pasted__lambert3SG
f 25/45/73 26/46/74 27/47/75
f 27/47/75 26/46/74 28/48/76
s 2
f 27/47/77 28/48/78 29/49/79
f 29/49/79 28/48/78 30/50/80
s 3
f 29/49/81 30/50/82 31/51/83
f 31/51/83 30/50/82 32/52/84
s 4
f 31/51/85 32/52/86 25/53/87
f 25/53/87 32/52/86 26/54/88
s 5
f 26/46/89 32/55/90 28/48/91
f 28/48/91 32/55/90 30/56/92
s 6
f 31/57/93 25/45/94 29/58/95
f 29/58/95 25/45/94 27/47/96
g default
v 0.981285 -0.074996 -1.941299
v 5.866497 -0.074996 -1.941299
v 0.981285 1.925004 -1.941299
v 5.866497 1.925004 -1.941299
v 0.981285 1.925004 -2.141299
v 5.866497 1.925004 -2.141299
v 0.981285 -0.074996 -2.141299
v 5.866497 -0.074996 -2.141299
vt 0.375000 0.000000
vt 0.625000 0.000000
vt 0.375000 0.250000
vt 0.625000 0.250000
vt 0.375000 0.500000
vt 0.625000 0.500000
vt 0.375000 0.750000
vt 0.625000 0.750000
vt 0.375000 1.000000
vt 0.625000 1.000000
vt 0.875000 0.000000
vt 0.875000 0.250000
vt 0.125000 0.000000
vt 0.125000 0.250000
vn 0.000000 0.000000 1.000000
vn 0.000000 0.000000 1.000000
vn 0.000000 0.000000 1.000000
vn 0.000000 0.000000 1.000000
vn 0.000000 1.000000 0.000000
vn 0.000000 1.000000 0.000000
vn 0.000000 1.000000 0.000000
vn 0.000000 1.000000 0.000000
vn 0.000000 0.000000 -1.000000
vn 0.000000 0.000000 -1.000000
vn 0.000000 0.000000 -1.000000
vn 0.000000 0.000000 -1.000000
vn 0.000000 -1.000000 0.000000
vn 0.000000 -1.000000 0.000000
vn 0.000000 -1.000000 0.000000
vn 0.000000 -1.000000 0.000000
vn 1.000000 0.000000 0.000000
vn 1.000000 0.000000 0.000000
vn 1.000000 0.000000 0.000000
vn 1.000000 0.000000 0.000000
vn -1.000000 0.000000 0.000000
vn -1.000000 0.000000 0.000000
vn -1.000000 0.000000 0.000000
vn -1.000000 0.000000 0.000000
s 1
g pasted__pasted__pCube2 pasted__group group3
usemtl pasted__pasted__lambert3SG1
f 33/59/97 34/60/98 35/61/99
f 35/61/99 34/60/98 36/62/100
s 2
f 35/61/101 36/62/102 37/63/103
f 37/63/103 36/62/102 38/64/104
s 3
f 37/63/105 38/64/106 39/65/107
f 39/65/107 38/64/106 40/66/108
s 4
f 39/65/109 40/66/110 33/67/111
f 33/67/111 40/66/110 34/68/112
s 5
f 34/60/113 40/69/114 36/62/115
f 36/62/115 40/69/114 38/70/116
s 6
f 39/71/117 33/59/118 37/72/119
f 37/72/119 33/59/118 35/61/120
g default
v 1.157950 -0.074996 -2.006611
v 1.157950 -0.074996 -8.528128
v 1.157950 1.925004 -2.006611
v 1.157950 1.925004 -8.528128
v 0.957950 1.925004 -2.006611
v 0.957950 1.925004 -8.528128
v 0.957950 -0.074996 -2.006611
v 0.957950 -0.074996 -8.528128
vt 0.375000 0.000000
vt 0.625000 0.000000
vt 0.375000 0.250000
vt 0.625000 0.250000
vt 0.375000 0.500000
vt 0.625000 0.500000
vt 0.375000 0.750000
vt 0.625000 0.750000
vt 0.375000 1.000000
vt 0.625000 1.000000
vt 0.875000 0.000000
vt 0.875000 0.250000
vt 0.125000 0.000000
vt 0.125000 0.250000
vn 1.000000 0.000000 0.000000
vn 1.000000 0.000000 0.000000
vn 1.000000 0.000000 0.000000
vn 1.000000 0.000000 0.000000
vn 0.000000 1.000000 0.000000
vn 0.000000 1.000000 0.000000
vn 0.000000 1.000000 0.000000
vn 0.000000 1.000000 0.000000
vn -1.000000 0.000000 -0.000000
vn -1.000000 0.000000 -0.000000
vn -1.000000 0.000000 -0.000000
vn -1.000000 0.000000 -0.000000
vn 0.000000 -1.000000 0.000000
vn 0.000000 -1.000000 0.000000
vn 0.000000 -1.000000 0.000000
vn 0.000000 -1.000000 0.000000
vn 0.000000 0.000000 -1.000000
vn 0.000000 0.000000 -1.000000
vn 0.000000 0.000000 -1.000000
vn 0.000000 0.000000 -1.000000
vn -0.000000 0.000000 1.000000
vn -0.000000 0.000000 1.000000
vn -0.000000 0.000000 1.000000
vn -0.000000 0.000000 1.000000
s 1
g pasted__pCube2 pasted__group group4
usemtl pasted__pasted__lambert3SG2
f 41/73/121 42/74/122 43/75/123
f 43/75/123 42/74/122 44/76/124
s 2
f 43/75/125 44/76/126 45/77/127
f 45/77/127 44/76/126 46/78/128
s 3
f 45/77/129 46/78/130 47/79/131
f 47/79/131 46/78/130 48/80/132
s 4
f 47/79/133 48/80/134 41/81/135
f 41/81/135 48/80/134 42/82/136
s 5
f 42/74/137 48/83/138 44/76/139
f 44/76/139 48/83/138 46/84/140
s 6
f 47/85/141 41/73/142 45/86/143
f 45/86/143 41/73/142 43/75/144
g default
v -2.305895 -0.074996 1.293978
v 8.736781 -0.074996 1.293978
v -2.305895 1.925004 1.293978
v 8.736781 1.925004 1.293978
v -2.305895 1.925004 1.093978
v 8.736781 1.925004 1.093978
v -2.305895 -0.074996 1.093978
v 8.736781 -0.074996 1.093978
vt 0.375000 0.000000
vt 0.625000 0.000000
vt 0.375000 0.250000
vt 0.625000 0.250000
vt 0.375000 0.500000
vt 0.625000 0.500000
vt 0.375000 0.750000
vt 0.625000 0.750000
vt 0.375000 1.000000
vt 0.625000 1.000000
vt 0.875000 0.000000
vt 0.875000 0.250000
vt 0.125000 0.000000
vt 0.125000 0.250000
vn 0.000000 0.000000 1.000000
vn 0.000000 0.000000 1.000000
vn 0.000000 0.000000 1.000000
vn 0.000000 0.000000 1.000000
vn 0.000000 1.000000 0.000000
vn 0.000000 1.000000 0.000000
vn 0.000000 1.000000 0.000000
vn 0.000000 1.000000 0.000000
vn 0.000000 0.000000 -1.000000
vn 0.000000 0.000000 -1.000000
vn 0.000000 0.000000 -1.000000
vn 0.000000 0.000000 -1.000000
vn 0.000000 -1.000000 0.000000
vn 0.000000 -1.000000 0.000000
vn 0.000000 -1.000000 0.000000
vn 0.000000 -1.000000 0.000000
vn 1.000000 0.000000 0.000000
vn 1.000000 0.000000 0.000000
vn 1.000000 0.000000 0.000000
vn 1.000000 0.000000 0.000000
vn -1.000000 0.000000 0.000000
vn -1.000000 0.000000 0.000000
vn -1.000000 0.000000 0.000000
vn -1.000000 0.000000 0.000000
s 1
g pasted__pCube2 pasted__group group5
usemtl pasted__pasted__lambert3SG3
f 49/87/145 50/88/146 51/89/147
f 51/89/147 50/88/146 52/90/148
s 2
f 51/89/149 52/90/150 53/91/151
f 53/91/151 52/90/150 54/92/152
s 3
f 53/91/153 54/92/154 55/93/155
f 55/93/155 54/92/154 56/94/156
s 4
f 55/93/157 56/94/158 49/95/159
f 49/95/159 56/94/158 50/96/160
s 5
f 50/88/161 56/97/162 52/90/163
f 52/90/163 56/97/162 54/98/164
s 6
f 55/99/165 49/87/166 53/100/167
f 53/100/167 49/87/166 51/89/168
g default
v -1.749249 -0.074996 1.179721
v -1.749249 -0.074996 -8.841757
v -1.749249 1.925004 1.179721
v -1.749249 1.925004 -8.841757
v -1.949249 1.925004 1.179721
v -1.949249 1.925004 -8.841757
v -1.949249 -0.074996 1.179721
v -1.949249 -0.074996 -8.841757
vt 0.375000 0.000000
vt 0.625000 0.000000
vt 0.375000 0.250000
vt 0.625000 0.250000
vt 0.375000 0.500000
vt 0.625000 0.500000
vt 0.375000 0.750000
vt 0.625000 0.750000
vt 0.375000 1.000000
vt 0.625000 1.000000
vt 0.875000 0.000000
vt 0.875000 0.250000
vt 0.125000 0.000000
vt 0.125000 0.250000
vn 1.000000 0.000000 0.000000
vn 1.000000 0.000000 0.000000
vn 1.000000 0.000000 0.000000
vn 1.000000 0.000000 0.000000
vn 0.000000 1.000000 0.000000
vn 0.000000 1.000000 0.000000
vn 0.000000 1.000000 0.000000
vn 0.000000 1.000000 0.000000
vn -1.000000 0.000000 -0.000000
vn -1.000000 0.000000 -0.000000
vn -1.000000 0.000000 -0.000000
vn -1.000000 0.000000 -0.000000
vn 0.000000 -1.000000 0.000000
vn 0.000000 -1.000000 0.000000
vn 0.000000 -1.000000 0.000000
vn 0.000000 -1.000000 0.000000
vn 0.000000 0.000000 -1.000000
vn 0.000000 0.000000 -1.000000
vn 0.000000 0.000000 -1.000000
vn 0.000000 0.000000 -1.000000
vn -0.000000 0.000000 1.000000
vn -0.000000 0.000000 1.000000
vn -0.000000 0.000000 1.000000
vn -0.000000 0.000000 1.000000
s 1
g pasted__pCube2 pasted__group group6
usemtl pasted__pasted__lambert3SG4
f 57/101/169 58/102/170 59/103/171
f 59/103/171 58/102/170 60/104/172
s 2
f 59/103/173 60/104/174 61/105/175
f 61/105/175 60/104/174 62/106/176
s 3
f 61/105/177 62/106/178 63/107/179
f 63/107/179 62/106/178 64/108/180
s 4
f 63/107/181 64/108/182 57/109/183
f 57/109/183 64/108/182 58/110/184
s 5
f 58/102/185 64/111/186 60/104/187
f 60/104/187 64/111/186 62/112/188
s 6
f 63/113/189 57/101/190 61/114/191
f 61/114/191 57/101/190 59/103/192
g default
v 1.157950 -0.074996 -3.429254
v 1.157950 -0.074996 -8.429254
v 1.157950 1.925004 -3.429254
v 1.157950 1.925004 -8.429254
v 0.957950 1.925004 -3.429254
v 0.957950 1.925004 -8.429254
v 0.957950 -0.074996 -3.429254
v 0.957950 -0.074996 -8.429254
vt 0.375000 0.000000
vt 0.625000 0.000000
vt 0.375000 0.250000
vt 0.625000 0.250000
vt 0.375000 0.500000
vt 0.625000 0.500000
vt 0.375000 0.750000
vt 0.625000 0.750000
vt 0.375000 1.000000
vt 0.625000 1.000000
vt 0.875000 0.000000
vt 0.875000 0.250000
vt 0.125000 0.000000
vt 0.125000 0.250000
vn 1.000000 0.000000 0.000000
vn 1.000000 0.000000 0.000000
vn 1.000000 0.000000 0.000000
vn 1.000000 0.000000 0.000000
vn 0.000000 1.000000 0.000000
vn 0.000000 1.000000 0.000000
vn 0.000000 1.000000 0.000000
vn 0.000000 1.000000 0.000000
vn -1.000000 0.000000 -0.000000
vn -1.000000 0.000000 -0.000000
vn -1.000000 0.000000 -0.000000
vn -1.000000 0.000000 -0.000000
vn 0.000000 -1.000000 0.000000
vn 0.000000 -1.000000 0.000000
vn 0.000000 -1.000000 0.000000
vn 0.000000 -1.000000 0.000000
vn 0.000000 0.000000 -1.000000
vn 0.000000 0.000000 -1.000000
vn 0.000000 0.000000 -1.000000
vn 0.000000 0.000000 -1.000000
vn -0.000000 0.000000 1.000000
vn -0.000000 0.000000 1.000000
vn -0.000000 0.000000 1.000000
vn -0.000000 0.000000 1.000000
s 1
g pasted__pCube2 pasted__group group7
usemtl pasted__pasted__lambert3SG5
f 65/115/193 66/116/194 67/117/195
f 67/117/195 66/116/194 68/118/196
s 2
f 67/117/197 68/118/198 69/119/199
f 69/119/199 68/118/198 70/120/200
s 3
f 69/119/201 70/120/202 71/121/203
f 71/121/203 70/120/202 72/122/204
s 4
f 71/121/205 72/122/206 65/123/207
f 65/123/207 72/122/206 66/124/208
s 5
f 66/116/209 72/125/210 68/118/211
f 68/118/211 72/125/210 70/126/212
s 6
f 71/127/213 65/115/214 69/128/215
f 69/128/215 65/115/214 67/117/216
